<svg width="171" height="103" viewBox="0 0 171 103" fill="none" xmlns="http://www.w3.org/2000/svg">
<path d="M6.9 17.35C9.3 17.35 10.85 21.1 11.55 28.6L12.15 36.7C12.15 42.8 11.05 58.7 8.85 84.4H9.75V84.85L10.35 84.4H11.55L29.1 85.75H30.3L37.8 83.5H38.85C40.45 84.5 41.55 85.9 42.15 87.7C42.15 91.5 37.9 93.85 29.4 94.75L14.1 93.25H11.25L4.05 95.2C1.35 94.2 2.12342e-07 92.6 2.12342e-07 90.4L3.15 38.95V36.7L2.25 21.7C2.25 19.2 3.8 17.75 6.9 17.35ZM71.1645 37.45C78.5645 37.45 84.1645 42.95 87.9645 53.95L88.5645 57.1C88.5645 67.8 83.5645 78.75 73.5645 89.95C69.5645 93.65 65.5145 95.5 61.4145 95.5C55.4145 95.5 51.1645 92.05 48.6645 85.15C47.7645 81.95 47.3145 79.15 47.3145 76.75V74.95C47.3145 59.15 53.0645 47.15 64.5645 38.95C66.5645 37.95 68.7645 37.45 71.1645 37.45ZM56.1645 76.45C56.1645 83.25 57.9145 86.65 61.4145 86.65C68.7145 86.65 74.7645 77.3 79.5645 58.6V55.75C77.8645 49.55 74.7145 46.45 70.1145 46.45C68.3145 46.45 67.4145 47.7 67.4145 50.2C67.4145 51.9 65.4145 53.25 61.4145 54.25C57.9145 60.15 56.1645 67.55 56.1645 76.45ZM140.511 0.099993C145.611 0.099993 148.611 1.94999 149.511 5.64999C149.511 7.15 148.061 8.75 145.161 10.45L140.211 9.09999H139.611C134.011 9.09999 127.611 17.05 120.411 32.95C119.411 36.85 118.911 40.6 118.911 44.2V50.35H119.511C131.711 47.45 139.511 46 142.911 46C147.311 46.8 149.511 48.55 149.511 51.25C148.611 54.05 147.161 55.45 145.161 55.45L142.461 55C132.261 55.9 124.761 57.45 119.961 59.65V60.7L121.761 85C121.761 96.5 119.461 102.25 114.861 102.25C113.261 102.25 111.811 101 110.511 98.5C112.111 94.4 112.911 89.25 112.911 83.05C112.911 76.75 112.311 69.6 111.111 61.6L103.911 62.5C97.4113 61.9 94.1613 59.85 94.1613 56.35C95.1613 53.55 96.7613 52.15 98.9613 52.15L102.711 53.2H105.411L110.211 52.6V44.2C110.211 28.7 117.061 15.1 130.761 3.4C133.861 1.19999 137.111 0.099993 140.511 0.099993ZM158.095 15.85C161.895 16.65 163.795 18.35 163.795 20.95C162.795 23.75 161.195 25.15 158.995 25.15C155.295 24.45 153.445 22.6 153.445 19.6C154.445 17.1 155.995 15.85 158.095 15.85ZM163.795 36.85C165.395 36.85 166.745 38.3 167.845 41.2L166.495 51.85V58.9C166.495 67.1 167.895 77.85 170.695 91.15C169.695 93.05 167.995 94 165.595 94C161.495 94 158.795 82 157.495 58V52.75C157.495 42.15 159.595 36.85 163.795 36.85Z" fill="black"/>
</svg>
