<svg width="430" height="228" viewBox="0 0 430 228" fill="none" xmlns="http://www.w3.org/2000/svg">
<path d="M58.9 86.35C61.3 86.35 62.85 90.1 63.55 97.6L64.15 105.7C64.15 111.8 63.05 127.7 60.85 153.4H61.75V153.85L62.35 153.4H63.55L81.1 154.75H82.3L89.8 152.5H90.85C92.45 153.5 93.55 154.9 94.15 156.7C94.15 160.5 89.9 162.85 81.4 163.75L66.1 162.25H63.25L56.05 164.2C53.35 163.2 52 161.6 52 159.4L55.15 107.95V105.7L54.25 90.7C54.25 88.2 55.8 86.75 58.9 86.35Z" fill="black"/>
<path d="M289.15 67.1C294.25 67.1 297.25 68.95 298.15 72.65C298.15 74.15 296.7 75.75 293.8 77.45L288.85 76.1H288.25C282.65 76.1 276.25 84.05 269.05 99.95C268.05 103.85 267.55 107.6 267.55 111.2V117.35H268.15C280.35 114.45 288.15 113 291.55 113C295.95 113.8 298.15 115.55 298.15 118.25C297.25 121.05 295.8 122.45 293.8 122.45L291.1 122C280.9 122.9 273.4 124.45 268.6 126.65V127.7L270.4 152C270.4 163.5 268.1 169.25 263.5 169.25C261.9 169.25 260.45 168 259.15 165.5C260.75 161.4 261.55 156.25 261.55 150.05C261.55 143.75 260.95 136.6 259.75 128.6L252.55 129.5C246.05 128.9 242.8 126.85 242.8 123.35C243.8 120.55 245.4 119.15 247.6 119.15L251.35 120.2H254.05L258.85 119.6V111.2C258.85 95.7 265.7 82.1 279.4 70.4C282.5 68.2 285.75 67.1 289.15 67.1ZM306.734 82.85C310.534 83.65 312.434 85.35 312.434 87.95C311.434 90.75 309.834 92.15 307.634 92.15C303.934 91.45 302.084 89.6 302.084 86.6C303.084 84.1 304.634 82.85 306.734 82.85ZM312.434 103.85C314.034 103.85 315.384 105.3 316.484 108.2L315.134 118.85V125.9C315.134 134.1 316.534 144.85 319.334 158.15C318.334 160.05 316.634 161 314.234 161C310.134 161 307.434 149 306.134 125V119.75C306.134 109.15 308.234 103.85 312.434 103.85Z" fill="black"/>
<mask id="path-3-inside-1_2_90" fill="white">
<path fill-rule="evenodd" clip-rule="evenodd" d="M153.456 36.532C137.882 39.5831 125.299 46.0443 114.898 56.3294C96.725 74.2987 91.8199 98.0594 101.419 121.613C103.745 127.319 105.976 129.776 108.312 129.208C109.601 128.894 109.821 129.378 109.821 132.514C109.821 135.497 110.378 136.869 112.782 139.812C116.477 144.334 118.72 145.407 121.875 144.16C123.157 143.654 124.457 143.22 124.765 143.195C125.073 143.17 126.733 145.629 128.454 148.659C132.48 155.747 137.437 162.162 144.477 169.391C149.809 174.865 150.927 177.233 148.532 177.974C147.863 178.182 147.474 177.533 147.474 176.21C147.474 174.882 146.638 173.491 145.188 172.405C138.959 167.743 134.947 163.135 131.372 156.535C127.356 149.121 124.611 146.927 124.647 151.159C124.657 152.381 125.402 154.889 126.302 156.734C128.663 161.572 136.09 171.727 140.077 175.568L143.501 178.868L141.092 179.43C138.659 179.998 135.174 179.437 125.898 176.984C116.466 174.491 108.862 176.21 99.2677 183.003C90.8697 188.949 87.2524 190.216 79.8147 189.815C74.8343 189.547 71.9819 188.888 67.6598 187.007C64.5545 185.655 62.0135 184.293 62.0135 183.979C62.0135 183.666 63.0195 181.08 64.2482 178.232C66.0107 174.152 66.4854 171.722 66.4904 166.759C66.5031 156.387 62.7894 150.626 56.0904 150.626C43.8746 150.626 43.6038 169.744 55.6657 180.617L59.4336 184.013L57.5509 185.918C54.4574 189.048 47.8016 191.535 42.5521 191.524C34.7531 191.509 29.2659 188.583 16.5965 177.687C7.81857 170.138 1.75423 166.029 0.132168 166.532C-0.427981 166.706 0.844625 167.792 2.96084 168.945C5.07705 170.099 10.5669 174.284 15.1606 178.245C29.106 190.271 36.0706 193.713 44.7834 192.883C49.5776 192.426 53.2178 190.932 57.9342 187.485L61.048 185.21L63.8572 186.818C68.0846 189.24 76.8735 191.552 81.7753 191.532C87.1923 191.511 90.8333 189.99 101.138 183.447C107.11 179.655 110.318 178.138 113.236 177.732C118.172 177.043 125.867 177.748 129.737 179.243C135.891 181.621 148.254 180.829 150.447 177.917C151.139 176.998 151.705 175.988 151.705 175.673C151.705 175.357 148.609 171.806 144.825 167.781C133.438 155.67 125.025 142.401 127.194 139.972C128.747 138.23 129.147 138.511 130.881 142.563C135.9 154.282 149.874 172.103 156.872 175.708C160.244 177.446 161.214 177.614 164.064 176.96C166.545 176.391 167.673 175.584 168.628 173.697C169.326 172.319 170.563 171.024 171.378 170.82C172.256 170.6 172.857 169.696 172.855 168.604C172.842 162.86 150.406 132.022 143.998 128.94C140.245 127.135 138.364 127.571 134.111 131.234C131.921 133.121 128.986 135.008 127.59 135.426C125.569 136.033 124.997 136.701 124.785 138.7C124.433 142.02 121.2 144.136 118.335 142.922C115.306 141.639 111.838 136.898 111.325 133.342C111.073 131.594 111.203 130.165 111.613 130.166C112.023 130.167 113.401 131.701 114.673 133.575C119.027 139.984 122.09 141.168 122.09 136.442C122.09 133.602 117.739 128.793 113.779 127.253C111.893 126.521 111.099 125.769 111.412 125.012C111.67 124.386 111.147 120.596 110.25 116.591C106.695 100.722 107.226 88.9028 112.008 77.4364C114.927 70.4361 121.293 62.2759 127.411 57.6901C133.082 53.4404 144.24 48.5398 151.507 47.1075C158.308 45.7665 171.027 45.6225 177.26 46.8147C184.02 48.1085 194.684 53.2137 200.162 57.7798C209.646 65.6843 218.038 79.4078 222.289 93.9631C224.741 102.359 225.011 107.008 223.178 109.263C221.46 111.375 221.63 114.342 223.644 117.415C226.176 121.278 227.297 119.901 226.808 113.531C226.432 108.644 226.543 108.129 227.972 108.129C229.292 108.129 229.551 108.743 229.551 111.873C229.551 116.321 228.309 120.756 226.816 121.637C224.592 122.949 222.031 122.269 220.202 119.88C218.531 117.698 218.044 117.514 215.143 117.97C213 118.307 210.527 118.01 207.704 117.078C202.635 115.403 199.988 116.161 197.474 120.005C194.769 124.142 190.628 147.802 190.628 159.118C190.628 165.581 191.557 167.94 194.103 167.94C195.051 167.94 196.396 168.47 197.093 169.119C200.426 172.219 205.678 171.035 209.009 166.434C211.532 162.948 213.967 155.531 215.121 147.819C216.116 141.167 216.438 123.572 215.588 122.293C215.004 121.413 216.061 121.272 218.018 121.971C221.174 123.097 220.318 139.582 216.424 152.675C214.114 160.437 213.811 164.003 215.335 165.422C216.832 166.814 218.525 166.584 221.89 164.531C230.333 159.378 245.989 151.109 251.578 148.851C257.463 146.473 258.547 146.298 267.374 146.298C273.224 146.298 277.212 146.634 277.796 147.177C278.491 147.824 278.364 149.258 277.316 152.613C275.332 158.959 275.905 168.776 278.511 173.088C281.287 177.682 284.97 179.745 290.398 179.745C298.944 179.745 304.02 175.63 303.99 168.727C303.958 161.278 297.42 153.826 286.771 149.099C280.348 146.248 280.421 146.596 284.803 139.631C287.944 134.639 300.083 122.907 305.879 119.262C309.71 116.853 322.541 110.384 325.165 109.54C325.863 109.315 326.188 108.884 325.888 108.581C325.082 107.768 313.488 113.092 306.384 117.536C296.014 124.024 285.728 134.43 281.589 142.622C279.946 145.872 279.809 145.952 276.935 145.347C275.306 145.004 270.547 144.752 266.358 144.786C256.683 144.865 250.097 147.161 235.041 155.701C229.151 159.041 224.166 161.62 223.961 161.43C223.757 161.239 224.184 158.82 224.911 156.052C226.707 149.215 227.559 133.371 226.253 131.103C225.708 130.154 224.702 129.378 224.021 129.378C223.026 129.378 222.782 130.747 222.782 136.316C222.782 145.275 221.494 151.648 218.721 156.409C216.581 160.084 216.551 160.308 217.909 162.508C219.262 164.701 219.252 164.792 217.639 164.792C216.715 164.792 215.769 164.329 215.535 163.764C215.302 163.199 216.301 158.506 217.755 153.337C219.825 145.983 220.502 141.658 220.867 133.471L221.332 123.006L223.61 123.471C225.178 123.792 226.525 123.458 227.931 122.399C229.812 120.984 229.974 120.311 229.974 113.905C229.974 107.372 229.862 106.933 228.143 106.706C226.628 106.505 226.208 105.757 225.717 102.378C224.793 96.0298 221.297 85.5573 217.755 78.5279C204.624 52.4661 181.237 40.4874 153.26 45.4942C130.617 49.5464 114.008 63.6452 108.491 83.4962C105.795 93.195 106.439 110.343 109.9 121.037C110.251 122.121 110.149 122.417 109.605 121.901C108.158 120.528 105.146 108.512 104.601 101.942C102.533 77.0028 119.278 53.9747 144.999 46.3866C167.895 39.6319 188.447 43.4157 203.559 57.1691C214.012 66.6822 220.152 77.3821 224.864 94.2976C226.302 99.4594 227.942 103.826 228.509 104.002C232.11 105.119 231.992 88.8501 228.324 78.6153C224.906 69.0778 220.174 62.2468 211.424 54.2203C202.308 45.8578 196.97 42.7547 185.301 39.033C177.744 36.6233 175.451 36.2494 166.936 36.0385C161.584 35.9055 155.518 36.1282 153.456 36.532ZM180.082 38.8811C203.462 44.4428 223.034 62.3522 228.234 82.9453C229.564 88.2142 230.051 101.833 228.908 101.833C228.555 101.833 227.566 98.9109 226.71 95.3404C222.905 79.4692 215.829 66.9254 205.061 56.9684C193.539 46.3134 182.421 42.022 166.342 42.022C146.892 42.022 131.057 48.2526 118.534 60.8318C103.663 75.7703 99.387 95.9093 106.485 117.573C109.858 127.869 109.85 127.804 107.866 127.804C105.652 127.804 102.477 121.909 100.026 113.244C97.6067 104.692 97.5754 91.987 99.9539 83.6253C107.666 56.5191 134.193 37.4897 164.473 37.3433C170.808 37.3127 175.383 37.7636 180.082 38.8811ZM225.261 113.835C225.217 116.869 225.008 117.548 224.474 116.392C223.456 114.189 223.456 109.703 224.474 109.703C224.939 109.703 225.293 111.562 225.261 113.835ZM208.714 118.763C210.726 119.544 212.939 119.78 215.164 119.449C217.416 119.114 218.551 119.24 218.551 119.824C218.551 120.307 217.734 120.618 216.737 120.514C214.958 120.331 214.918 120.57 214.725 132.525C214.365 154.791 209.354 169.514 202.135 169.514C199.754 169.514 196.179 166.774 196.982 165.566C198.343 163.519 202.463 134.484 202.453 127.017C202.45 125.069 202.065 122.944 201.597 122.295C200.872 121.287 200.502 121.386 199.072 122.972C198.151 123.994 197.397 125.558 197.397 126.448C197.397 127.338 197.17 127.856 196.894 127.597C196.108 126.868 197.283 122.886 199.105 120.099C201.006 117.191 203.705 116.816 208.714 118.763ZM199.112 146.125C198.151 153.145 197.049 159.952 196.663 161.251C196 163.486 195.93 163.393 195.333 159.494C194.267 152.52 196.78 130.77 199.314 125.049C200.308 122.804 200.37 122.949 200.609 128.025C200.747 130.959 200.073 139.105 199.112 146.125ZM118.963 132.688C119.834 133.773 120.415 135.509 120.254 136.545C119.992 138.225 119.62 137.963 116.795 134.11C115.053 131.735 113.628 129.478 113.628 129.095C113.628 128.057 117.149 130.427 118.963 132.688ZM146.027 132.562L149.59 135.747L146.316 133.754C140.562 130.25 140.317 132.603 145.582 140.789C150.136 147.87 158.141 158.973 163.246 165.289C168.161 171.372 168.558 172.56 166.301 174.436C162.788 177.358 159.256 176.436 152.956 170.954C144.762 163.825 131.401 144.26 131.398 139.387C131.398 137.512 129.174 136.813 127.442 138.143C126.254 139.055 126.106 139.045 126.45 138.078C126.672 137.452 127.971 136.662 129.336 136.323C130.7 135.983 133.23 134.281 134.958 132.541C139.075 128.395 141.369 128.399 146.027 132.562ZM225.595 139.328C225.346 150.625 222.62 162.431 220.26 162.431C218.349 162.431 218.471 159.984 220.583 155.968C223.153 151.081 224.7 141.398 223.937 134.976C223.492 131.24 223.591 130.716 224.577 131.584C225.416 132.322 225.702 134.496 225.595 139.328ZM195.437 134.247C195.167 134.875 194.966 134.688 194.925 133.771C194.889 132.942 195.089 132.477 195.37 132.739C195.651 133 195.681 133.679 195.437 134.247ZM148.236 137.646C154.716 144.185 168.197 165.455 166.727 166.822C166.235 167.28 156.584 154.759 150.299 145.511C142.304 133.746 141.56 130.911 148.236 137.646ZM194.303 151.61C194.175 165.407 193.388 169.771 192.166 163.449C191.85 161.807 191.768 158.516 191.985 156.135C192.428 151.294 194.173 137.247 194.333 137.247C194.389 137.247 194.376 143.71 194.303 151.61ZM161.113 150.462C167.419 159.212 171.144 165.767 171.158 168.137C171.172 170.551 169.642 169.618 168.577 166.563C166.986 161.994 162.945 154.807 157.926 147.615C155.41 144.012 153.732 141.281 154.195 141.548C154.66 141.815 157.772 145.826 161.113 150.462ZM288.16 151.241C297.334 155.814 302.316 161.774 302.458 168.346C302.594 174.686 298.206 178.508 290.79 178.508C285.51 178.508 282.543 176.835 279.781 172.3C276.63 167.127 276.52 157.46 279.526 150.104C280.447 147.85 281.684 148.012 288.16 151.241ZM135.738 165.894C137.306 167.802 140.2 170.371 142.167 171.603C144.579 173.112 145.751 174.419 145.763 175.613C145.774 176.587 145.343 177.384 144.806 177.384C142.314 177.384 131.618 164.065 127.547 155.893C124.326 149.428 126.247 149.913 129.71 156.44C131.458 159.731 134.17 163.985 135.738 165.894ZM60.7527 154.018C62.3486 155.502 63.9926 158.127 64.5739 160.117C65.8338 164.437 65.1916 172.674 63.2243 177.415C60.7925 183.275 60.2332 183.44 56.2935 179.465C47.5173 170.609 45.3334 158.125 51.6972 153.188C54.8745 150.723 57.4654 150.961 60.7527 154.018Z"/>
</mask>
<path fill-rule="evenodd" clip-rule="evenodd" d="M153.456 36.532C137.882 39.5831 125.299 46.0443 114.898 56.3294C96.725 74.2987 91.8199 98.0594 101.419 121.613C103.745 127.319 105.976 129.776 108.312 129.208C109.601 128.894 109.821 129.378 109.821 132.514C109.821 135.497 110.378 136.869 112.782 139.812C116.477 144.334 118.72 145.407 121.875 144.16C123.157 143.654 124.457 143.22 124.765 143.195C125.073 143.17 126.733 145.629 128.454 148.659C132.48 155.747 137.437 162.162 144.477 169.391C149.809 174.865 150.927 177.233 148.532 177.974C147.863 178.182 147.474 177.533 147.474 176.21C147.474 174.882 146.638 173.491 145.188 172.405C138.959 167.743 134.947 163.135 131.372 156.535C127.356 149.121 124.611 146.927 124.647 151.159C124.657 152.381 125.402 154.889 126.302 156.734C128.663 161.572 136.09 171.727 140.077 175.568L143.501 178.868L141.092 179.43C138.659 179.998 135.174 179.437 125.898 176.984C116.466 174.491 108.862 176.21 99.2677 183.003C90.8697 188.949 87.2524 190.216 79.8147 189.815C74.8343 189.547 71.9819 188.888 67.6598 187.007C64.5545 185.655 62.0135 184.293 62.0135 183.979C62.0135 183.666 63.0195 181.08 64.2482 178.232C66.0107 174.152 66.4854 171.722 66.4904 166.759C66.5031 156.387 62.7894 150.626 56.0904 150.626C43.8746 150.626 43.6038 169.744 55.6657 180.617L59.4336 184.013L57.5509 185.918C54.4574 189.048 47.8016 191.535 42.5521 191.524C34.7531 191.509 29.2659 188.583 16.5965 177.687C7.81857 170.138 1.75423 166.029 0.132168 166.532C-0.427981 166.706 0.844625 167.792 2.96084 168.945C5.07705 170.099 10.5669 174.284 15.1606 178.245C29.106 190.271 36.0706 193.713 44.7834 192.883C49.5776 192.426 53.2178 190.932 57.9342 187.485L61.048 185.21L63.8572 186.818C68.0846 189.24 76.8735 191.552 81.7753 191.532C87.1923 191.511 90.8333 189.99 101.138 183.447C107.11 179.655 110.318 178.138 113.236 177.732C118.172 177.043 125.867 177.748 129.737 179.243C135.891 181.621 148.254 180.829 150.447 177.917C151.139 176.998 151.705 175.988 151.705 175.673C151.705 175.357 148.609 171.806 144.825 167.781C133.438 155.67 125.025 142.401 127.194 139.972C128.747 138.23 129.147 138.511 130.881 142.563C135.9 154.282 149.874 172.103 156.872 175.708C160.244 177.446 161.214 177.614 164.064 176.96C166.545 176.391 167.673 175.584 168.628 173.697C169.326 172.319 170.563 171.024 171.378 170.82C172.256 170.6 172.857 169.696 172.855 168.604C172.842 162.86 150.406 132.022 143.998 128.94C140.245 127.135 138.364 127.571 134.111 131.234C131.921 133.121 128.986 135.008 127.59 135.426C125.569 136.033 124.997 136.701 124.785 138.7C124.433 142.02 121.2 144.136 118.335 142.922C115.306 141.639 111.838 136.898 111.325 133.342C111.073 131.594 111.203 130.165 111.613 130.166C112.023 130.167 113.401 131.701 114.673 133.575C119.027 139.984 122.09 141.168 122.09 136.442C122.09 133.602 117.739 128.793 113.779 127.253C111.893 126.521 111.099 125.769 111.412 125.012C111.67 124.386 111.147 120.596 110.25 116.591C106.695 100.722 107.226 88.9028 112.008 77.4364C114.927 70.4361 121.293 62.2759 127.411 57.6901C133.082 53.4404 144.24 48.5398 151.507 47.1075C158.308 45.7665 171.027 45.6225 177.26 46.8147C184.02 48.1085 194.684 53.2137 200.162 57.7798C209.646 65.6843 218.038 79.4078 222.289 93.9631C224.741 102.359 225.011 107.008 223.178 109.263C221.46 111.375 221.63 114.342 223.644 117.415C226.176 121.278 227.297 119.901 226.808 113.531C226.432 108.644 226.543 108.129 227.972 108.129C229.292 108.129 229.551 108.743 229.551 111.873C229.551 116.321 228.309 120.756 226.816 121.637C224.592 122.949 222.031 122.269 220.202 119.88C218.531 117.698 218.044 117.514 215.143 117.97C213 118.307 210.527 118.01 207.704 117.078C202.635 115.403 199.988 116.161 197.474 120.005C194.769 124.142 190.628 147.802 190.628 159.118C190.628 165.581 191.557 167.94 194.103 167.94C195.051 167.94 196.396 168.47 197.093 169.119C200.426 172.219 205.678 171.035 209.009 166.434C211.532 162.948 213.967 155.531 215.121 147.819C216.116 141.167 216.438 123.572 215.588 122.293C215.004 121.413 216.061 121.272 218.018 121.971C221.174 123.097 220.318 139.582 216.424 152.675C214.114 160.437 213.811 164.003 215.335 165.422C216.832 166.814 218.525 166.584 221.89 164.531C230.333 159.378 245.989 151.109 251.578 148.851C257.463 146.473 258.547 146.298 267.374 146.298C273.224 146.298 277.212 146.634 277.796 147.177C278.491 147.824 278.364 149.258 277.316 152.613C275.332 158.959 275.905 168.776 278.511 173.088C281.287 177.682 284.97 179.745 290.398 179.745C298.944 179.745 304.02 175.63 303.99 168.727C303.958 161.278 297.42 153.826 286.771 149.099C280.348 146.248 280.421 146.596 284.803 139.631C287.944 134.639 300.083 122.907 305.879 119.262C309.71 116.853 322.541 110.384 325.165 109.54C325.863 109.315 326.188 108.884 325.888 108.581C325.082 107.768 313.488 113.092 306.384 117.536C296.014 124.024 285.728 134.43 281.589 142.622C279.946 145.872 279.809 145.952 276.935 145.347C275.306 145.004 270.547 144.752 266.358 144.786C256.683 144.865 250.097 147.161 235.041 155.701C229.151 159.041 224.166 161.62 223.961 161.43C223.757 161.239 224.184 158.82 224.911 156.052C226.707 149.215 227.559 133.371 226.253 131.103C225.708 130.154 224.702 129.378 224.021 129.378C223.026 129.378 222.782 130.747 222.782 136.316C222.782 145.275 221.494 151.648 218.721 156.409C216.581 160.084 216.551 160.308 217.909 162.508C219.262 164.701 219.252 164.792 217.639 164.792C216.715 164.792 215.769 164.329 215.535 163.764C215.302 163.199 216.301 158.506 217.755 153.337C219.825 145.983 220.502 141.658 220.867 133.471L221.332 123.006L223.61 123.471C225.178 123.792 226.525 123.458 227.931 122.399C229.812 120.984 229.974 120.311 229.974 113.905C229.974 107.372 229.862 106.933 228.143 106.706C226.628 106.505 226.208 105.757 225.717 102.378C224.793 96.0298 221.297 85.5573 217.755 78.5279C204.624 52.4661 181.237 40.4874 153.26 45.4942C130.617 49.5464 114.008 63.6452 108.491 83.4962C105.795 93.195 106.439 110.343 109.9 121.037C110.251 122.121 110.149 122.417 109.605 121.901C108.158 120.528 105.146 108.512 104.601 101.942C102.533 77.0028 119.278 53.9747 144.999 46.3866C167.895 39.6319 188.447 43.4157 203.559 57.1691C214.012 66.6822 220.152 77.3821 224.864 94.2976C226.302 99.4594 227.942 103.826 228.509 104.002C232.11 105.119 231.992 88.8501 228.324 78.6153C224.906 69.0778 220.174 62.2468 211.424 54.2203C202.308 45.8578 196.97 42.7547 185.301 39.033C177.744 36.6233 175.451 36.2494 166.936 36.0385C161.584 35.9055 155.518 36.1282 153.456 36.532ZM180.082 38.8811C203.462 44.4428 223.034 62.3522 228.234 82.9453C229.564 88.2142 230.051 101.833 228.908 101.833C228.555 101.833 227.566 98.9109 226.71 95.3404C222.905 79.4692 215.829 66.9254 205.061 56.9684C193.539 46.3134 182.421 42.022 166.342 42.022C146.892 42.022 131.057 48.2526 118.534 60.8318C103.663 75.7703 99.387 95.9093 106.485 117.573C109.858 127.869 109.85 127.804 107.866 127.804C105.652 127.804 102.477 121.909 100.026 113.244C97.6067 104.692 97.5754 91.987 99.9539 83.6253C107.666 56.5191 134.193 37.4897 164.473 37.3433C170.808 37.3127 175.383 37.7636 180.082 38.8811ZM225.261 113.835C225.217 116.869 225.008 117.548 224.474 116.392C223.456 114.189 223.456 109.703 224.474 109.703C224.939 109.703 225.293 111.562 225.261 113.835ZM208.714 118.763C210.726 119.544 212.939 119.78 215.164 119.449C217.416 119.114 218.551 119.24 218.551 119.824C218.551 120.307 217.734 120.618 216.737 120.514C214.958 120.331 214.918 120.57 214.725 132.525C214.365 154.791 209.354 169.514 202.135 169.514C199.754 169.514 196.179 166.774 196.982 165.566C198.343 163.519 202.463 134.484 202.453 127.017C202.45 125.069 202.065 122.944 201.597 122.295C200.872 121.287 200.502 121.386 199.072 122.972C198.151 123.994 197.397 125.558 197.397 126.448C197.397 127.338 197.17 127.856 196.894 127.597C196.108 126.868 197.283 122.886 199.105 120.099C201.006 117.191 203.705 116.816 208.714 118.763ZM199.112 146.125C198.151 153.145 197.049 159.952 196.663 161.251C196 163.486 195.93 163.393 195.333 159.494C194.267 152.52 196.78 130.77 199.314 125.049C200.308 122.804 200.37 122.949 200.609 128.025C200.747 130.959 200.073 139.105 199.112 146.125ZM118.963 132.688C119.834 133.773 120.415 135.509 120.254 136.545C119.992 138.225 119.62 137.963 116.795 134.11C115.053 131.735 113.628 129.478 113.628 129.095C113.628 128.057 117.149 130.427 118.963 132.688ZM146.027 132.562L149.59 135.747L146.316 133.754C140.562 130.25 140.317 132.603 145.582 140.789C150.136 147.87 158.141 158.973 163.246 165.289C168.161 171.372 168.558 172.56 166.301 174.436C162.788 177.358 159.256 176.436 152.956 170.954C144.762 163.825 131.401 144.26 131.398 139.387C131.398 137.512 129.174 136.813 127.442 138.143C126.254 139.055 126.106 139.045 126.45 138.078C126.672 137.452 127.971 136.662 129.336 136.323C130.7 135.983 133.23 134.281 134.958 132.541C139.075 128.395 141.369 128.399 146.027 132.562ZM225.595 139.328C225.346 150.625 222.62 162.431 220.26 162.431C218.349 162.431 218.471 159.984 220.583 155.968C223.153 151.081 224.7 141.398 223.937 134.976C223.492 131.24 223.591 130.716 224.577 131.584C225.416 132.322 225.702 134.496 225.595 139.328ZM195.437 134.247C195.167 134.875 194.966 134.688 194.925 133.771C194.889 132.942 195.089 132.477 195.37 132.739C195.651 133 195.681 133.679 195.437 134.247ZM148.236 137.646C154.716 144.185 168.197 165.455 166.727 166.822C166.235 167.28 156.584 154.759 150.299 145.511C142.304 133.746 141.56 130.911 148.236 137.646ZM194.303 151.61C194.175 165.407 193.388 169.771 192.166 163.449C191.85 161.807 191.768 158.516 191.985 156.135C192.428 151.294 194.173 137.247 194.333 137.247C194.389 137.247 194.376 143.71 194.303 151.61ZM161.113 150.462C167.419 159.212 171.144 165.767 171.158 168.137C171.172 170.551 169.642 169.618 168.577 166.563C166.986 161.994 162.945 154.807 157.926 147.615C155.41 144.012 153.732 141.281 154.195 141.548C154.66 141.815 157.772 145.826 161.113 150.462ZM288.16 151.241C297.334 155.814 302.316 161.774 302.458 168.346C302.594 174.686 298.206 178.508 290.79 178.508C285.51 178.508 282.543 176.835 279.781 172.3C276.63 167.127 276.52 157.46 279.526 150.104C280.447 147.85 281.684 148.012 288.16 151.241ZM135.738 165.894C137.306 167.802 140.2 170.371 142.167 171.603C144.579 173.112 145.751 174.419 145.763 175.613C145.774 176.587 145.343 177.384 144.806 177.384C142.314 177.384 131.618 164.065 127.547 155.893C124.326 149.428 126.247 149.913 129.71 156.44C131.458 159.731 134.17 163.985 135.738 165.894ZM60.7527 154.018C62.3486 155.502 63.9926 158.127 64.5739 160.117C65.8338 164.437 65.1916 172.674 63.2243 177.415C60.7925 183.275 60.2332 183.44 56.2935 179.465C47.5173 170.609 45.3334 158.125 51.6972 153.188C54.8745 150.723 57.4654 150.961 60.7527 154.018Z" fill="black" stroke="black" stroke-width="4" mask="url(#path-3-inside-1_2_90)"/>
</svg>
