<svg width="323" height="167" viewBox="0 0 323 167" fill="none" xmlns="http://www.w3.org/2000/svg">
<rect width="323" height="167" fill="white"/>
<path d="M58.9 48.35C61.3 48.35 62.85 52.1 63.55 59.6L64.15 67.7C64.15 73.8 63.05 89.7 60.85 115.4H61.75V115.85L62.35 115.4H63.55L81.1 116.75H82.3L89.8 114.5H90.85C92.45 115.5 93.55 116.9 94.15 118.7C94.15 122.5 89.9 124.85 81.4 125.75L66.1 124.25H63.25L56.05 126.2C53.35 125.2 52 123.6 52 121.4L55.15 69.95V67.7L54.25 52.7C54.25 50.2 55.8 48.75 58.9 48.35Z" fill="black"/>
<path d="M286.15 29.1C291.25 29.1 294.25 30.95 295.15 34.65C295.15 36.15 293.7 37.75 290.8 39.45L285.85 38.1H285.25C279.65 38.1 273.25 46.05 266.05 61.95C265.05 65.85 264.55 69.6 264.55 73.2V79.35H265.15C277.35 76.45 285.15 75 288.55 75C292.95 75.8 295.15 77.55 295.15 80.25C294.25 83.05 292.8 84.45 290.8 84.45L288.1 84C277.9 84.9 270.4 86.45 265.6 88.65V89.7L267.4 114C267.4 125.5 265.1 131.25 260.5 131.25C258.9 131.25 257.45 130 256.15 127.5C257.75 123.4 258.55 118.25 258.55 112.05C258.55 105.75 257.95 98.6 256.75 90.6L249.55 91.5C243.05 90.9 239.8 88.85 239.8 85.35C240.8 82.55 242.4 81.15 244.6 81.15L248.35 82.2H251.05L255.85 81.6V73.2C255.85 57.7 262.7 44.1 276.4 32.4C279.5 30.2 282.75 29.1 286.15 29.1ZM303.734 44.85C307.534 45.65 309.434 47.35 309.434 49.95C308.434 52.75 306.834 54.15 304.634 54.15C300.934 53.45 299.084 51.6 299.084 48.6C300.084 46.1 301.634 44.85 303.734 44.85ZM309.434 65.85C311.034 65.85 312.384 67.3 313.484 70.2L312.134 80.85V87.9C312.134 96.1 313.534 106.85 316.334 120.15C315.334 122.05 313.634 123 311.234 123C307.134 123 304.434 111 303.134 87V81.75C303.134 71.15 305.234 65.85 309.434 65.85Z" fill="black"/>
<mask id="path-3-inside-1_0_1" fill="white">
<path fill-rule="evenodd" clip-rule="evenodd" d="M152.044 0.565848C136.614 3.81134 124.146 10.684 113.84 21.6243C95.8349 40.7381 90.9749 66.0122 100.486 91.0662C102.791 97.1353 105.001 99.7487 107.315 99.1443C108.592 98.8112 108.81 99.3252 108.81 102.661C108.81 105.835 109.362 107.294 111.744 110.424C115.406 115.234 117.627 116.375 120.753 115.049C122.024 114.511 123.312 114.049 123.616 114.022C123.922 113.996 125.567 116.612 127.272 119.834C131.261 127.374 136.173 134.198 143.148 141.887C148.43 147.71 149.538 150.228 147.165 151.017C146.502 151.238 146.117 150.548 146.117 149.14C146.117 147.728 145.288 146.248 143.852 145.093C137.68 140.134 133.705 135.233 130.163 128.212C126.184 120.327 123.465 117.992 123.5 122.494C123.51 123.794 124.248 126.462 125.14 128.424C127.479 133.57 134.838 144.372 138.787 148.458L142.18 151.968L139.794 152.566C137.383 153.17 133.93 152.573 124.739 149.964C115.395 147.312 107.86 149.14 98.3542 156.366C90.0334 162.69 86.4494 164.038 79.0802 163.612C74.1457 163.327 71.3195 162.626 67.0372 160.625C63.9604 159.187 61.4428 157.738 61.4428 157.405C61.4428 157.072 62.4396 154.321 63.6569 151.291C65.4032 146.951 65.8735 144.367 65.8786 139.088C65.8911 128.055 62.2116 121.927 55.5743 121.927C43.4709 121.927 43.2026 142.263 55.1534 153.828L58.8866 157.44L57.0213 159.467C53.9562 162.796 47.3617 165.442 42.1605 165.43C34.4333 165.414 28.9966 162.302 16.4438 150.711C7.74662 142.682 1.73809 138.311 0.130952 138.846C-0.424043 139.031 0.836852 140.186 2.93359 141.413C5.03033 142.64 10.4696 147.092 15.0211 151.306C28.8381 164.098 35.7387 167.758 44.3713 166.875C49.1214 166.39 52.728 164.8 57.4011 161.133L60.4862 158.713L63.2696 160.424C67.458 163 76.1661 165.46 81.0227 165.439C86.3899 165.416 89.9974 163.799 100.208 156.838C106.124 152.805 109.303 151.192 112.194 150.759C117.085 150.027 124.709 150.777 128.544 152.367C134.641 154.896 146.889 154.054 149.062 150.957C149.748 149.979 150.309 148.905 150.309 148.569C150.309 148.234 147.242 144.456 143.492 140.175C132.21 127.292 123.875 113.179 126.023 110.594C127.563 108.742 127.958 109.04 129.677 113.35C134.649 125.816 148.495 144.772 155.428 148.607C158.769 150.455 159.731 150.634 162.554 149.939C165.012 149.333 166.13 148.475 167.076 146.468C167.768 145.002 168.994 143.624 169.801 143.408C170.67 143.173 171.266 142.212 171.264 141.05C171.251 134.94 149.022 102.138 142.673 98.8597C138.954 96.9394 137.091 97.404 132.877 101.3C130.707 103.307 127.799 105.314 126.416 105.759C124.414 106.405 123.847 107.115 123.637 109.242C123.288 112.773 120.084 115.024 117.246 113.732C114.245 112.367 110.809 107.325 110.301 103.542C110.051 101.683 110.179 100.163 110.586 100.164C110.992 100.165 112.357 101.796 113.618 103.79C117.932 110.607 120.966 111.867 120.966 106.839C120.966 103.819 116.656 98.7032 112.732 97.0658C110.863 96.2864 110.077 95.487 110.386 94.6817C110.642 94.0153 110.124 89.9846 109.235 85.7246C105.713 68.8442 106.239 56.2724 110.977 44.0757C113.87 36.6295 120.177 27.9495 126.239 23.0716C131.858 18.5512 142.913 13.3385 150.113 11.815C156.852 10.3885 169.453 10.2353 175.628 11.5036C182.327 12.8798 192.893 18.3101 198.32 23.1671C207.717 31.575 216.032 46.1726 220.243 61.655C222.673 70.5862 222.94 75.531 221.124 77.9294C219.422 80.1762 219.59 83.3321 221.586 86.6002C224.095 90.7096 225.206 89.2455 224.72 82.469C224.348 77.2714 224.458 76.7231 225.874 76.7231C227.182 76.7231 227.438 77.376 227.438 80.7052C227.438 85.4374 226.208 90.1546 224.729 91.0913C222.525 92.4876 219.988 91.7643 218.175 89.2229C216.52 86.9016 216.037 86.7057 213.164 87.1912C211.04 87.5495 208.589 87.2331 205.793 86.2419C200.77 84.4605 198.148 85.2667 195.657 89.356C192.977 93.7558 188.874 118.923 188.874 130.96C188.874 137.834 189.794 140.344 192.317 140.344C193.256 140.344 194.589 140.908 195.28 141.598C198.582 144.895 203.786 143.636 207.085 138.742C209.585 135.034 211.998 127.145 213.141 118.941C214.127 111.866 214.446 93.1498 213.604 91.7895C213.025 90.8536 214.073 90.7037 216.011 91.4471C219.139 92.645 218.29 110.179 214.432 124.106C212.144 132.363 211.843 136.156 213.354 137.665C214.837 139.146 216.514 138.901 219.848 136.717C228.214 131.237 243.725 122.441 249.263 120.039C255.093 117.51 256.168 117.323 264.913 117.323C270.709 117.323 274.661 117.681 275.239 118.258C275.928 118.946 275.803 120.471 274.764 124.041C272.799 130.791 273.366 141.234 275.948 145.819C278.698 150.706 282.348 152.9 287.726 152.9C296.193 152.9 301.222 148.524 301.192 141.181C301.16 133.258 294.683 125.331 284.132 120.303C277.768 117.27 277.841 117.64 282.182 110.232C285.294 104.922 297.322 92.4424 303.064 88.5649C306.86 86.0025 319.573 79.1223 322.173 78.224C322.865 77.9846 323.187 77.5259 322.889 77.2036C322.09 76.3397 310.603 82.0019 303.565 86.7291C293.29 93.6311 283.099 104.699 278.997 113.413C277.37 116.87 277.234 116.956 274.387 116.312C272.773 115.947 268.057 115.679 263.907 115.715C254.321 115.8 247.795 118.241 232.878 127.325C227.043 130.878 222.103 133.621 221.9 133.419C221.698 133.217 222.121 130.643 222.842 127.699C224.621 120.426 225.465 103.574 224.171 101.161C223.63 100.151 222.634 99.3252 221.96 99.3252C220.974 99.3252 220.731 100.782 220.731 106.705C220.731 116.235 219.455 123.014 216.708 128.078C214.588 131.988 214.559 132.225 215.903 134.566C217.245 136.899 217.235 136.995 215.636 136.995C214.72 136.995 213.783 136.503 213.552 135.902C213.32 135.301 214.31 130.309 215.752 124.81C217.802 116.988 218.473 112.388 218.834 103.68L219.295 92.5479L221.552 93.0426C223.106 93.3833 224.44 93.0284 225.834 91.9025C227.697 90.3973 227.857 89.6816 227.857 82.8675C227.857 75.9178 227.747 75.4515 226.043 75.2096C224.543 74.9961 224.127 74.2 223.64 70.6055C222.724 63.8533 219.261 52.7138 215.752 45.2367C202.741 17.5149 179.57 4.77318 151.85 10.0989C129.415 14.4092 112.958 29.4061 107.492 50.5214C104.821 60.838 105.459 79.0787 108.888 90.4534C109.236 91.6061 109.135 91.9217 108.596 91.3726C107.163 89.9118 104.178 77.1308 103.638 70.1417C101.589 43.6144 118.181 19.1196 143.665 11.0482C166.35 3.86324 186.712 7.88808 201.686 22.5175C212.043 32.6365 218.126 44.0179 222.795 62.0108C224.219 67.5014 225.845 72.1466 226.406 72.3333C229.974 73.5211 229.857 56.2163 226.223 45.3297C222.837 35.1847 218.148 27.9185 209.478 19.3808C200.446 10.4856 195.157 7.1849 183.596 3.22619C176.109 0.662953 173.837 0.265325 165.4 0.0409781C160.097 -0.100494 154.087 0.136409 152.044 0.565848ZM178.424 3.06463C201.59 8.98051 220.981 28.0307 226.134 49.9355C227.452 55.5399 227.934 70.0262 226.802 70.0262C226.452 70.0262 225.471 66.918 224.624 63.12C220.854 46.2379 213.843 32.8952 203.174 22.304C191.758 10.9703 180.742 6.40555 164.811 6.40555C145.54 6.40555 129.851 13.033 117.444 26.4134C102.709 42.3035 98.4724 63.7252 105.505 86.7685C108.847 97.7204 108.839 97.6509 106.874 97.6509C104.68 97.6509 101.534 91.3809 99.1053 82.1643C96.7085 73.0674 96.6774 59.553 99.0341 50.6587C106.675 21.826 132.958 1.58462 162.96 1.42891C169.236 1.39626 173.769 1.87593 178.424 3.06463ZM223.188 82.7922C223.144 86.0201 222.937 86.7425 222.408 85.5128C221.4 83.1689 221.4 78.3973 222.408 78.3973C222.869 78.3973 223.22 80.3746 223.188 82.7922ZM206.794 88.0342C208.786 88.8654 210.98 89.1166 213.184 88.7641C215.415 88.4084 216.54 88.5415 216.54 89.1626C216.54 89.6766 215.731 90.0072 214.742 89.8976C212.98 89.7025 212.941 89.9562 212.749 102.674C212.392 126.357 207.427 142.018 200.275 142.018C197.916 142.018 194.374 139.104 195.17 137.819C196.518 135.641 200.6 104.756 200.59 96.8138C200.587 94.742 200.206 92.4818 199.742 91.7911C199.024 90.7196 198.657 90.8251 197.241 92.5119C196.328 93.5985 195.581 95.2626 195.581 96.2086C195.581 97.1554 195.356 97.7062 195.082 97.4316C194.304 96.6556 195.467 92.4198 197.273 89.4556C199.156 86.3624 201.831 85.964 206.794 88.0342ZM197.28 117.14C196.328 124.607 195.236 131.847 194.854 133.228C194.196 135.606 194.127 135.508 193.536 131.36C192.479 123.942 194.969 100.806 197.479 94.721C198.465 92.3327 198.527 92.4868 198.763 97.8862C198.9 101.008 198.232 109.672 197.28 117.14ZM117.869 102.847C118.731 104 119.307 105.847 119.147 106.949C118.888 108.736 118.519 108.457 115.72 104.359C113.995 101.833 112.583 99.4323 112.583 99.0246C112.583 97.9205 116.071 100.442 117.869 102.847ZM144.683 102.713L148.213 106.101L144.97 103.98C139.269 100.254 139.026 102.756 144.242 111.463C148.755 118.996 156.686 130.806 161.743 137.524C166.614 143.994 167.007 145.258 164.771 147.254C161.29 150.361 157.791 149.381 151.548 143.55C143.429 135.966 130.192 115.156 130.189 109.972C130.188 107.978 127.985 107.234 126.269 108.649C125.092 109.619 124.945 109.608 125.287 108.579C125.506 107.914 126.793 107.073 128.145 106.713C129.498 106.351 132.004 104.541 133.716 102.69C137.795 98.2796 140.068 98.2846 144.683 102.713ZM223.519 109.91C223.272 121.926 220.571 134.484 218.233 134.484C216.34 134.484 216.461 131.881 218.553 127.61C221.099 122.411 222.632 112.111 221.876 105.28C221.436 101.307 221.534 100.749 222.51 101.672C223.341 102.457 223.625 104.77 223.519 109.91ZM193.638 104.505C193.371 105.172 193.172 104.974 193.132 103.999C193.096 103.116 193.294 102.623 193.572 102.9C193.85 103.178 193.88 103.901 193.638 104.505ZM146.872 108.121C153.292 115.075 166.649 137.701 165.192 139.155C164.705 139.641 155.143 126.324 148.916 116.486C140.994 103.972 140.257 100.956 146.872 108.121ZM192.515 122.974C192.388 137.65 191.608 142.292 190.398 135.566C190.084 133.82 190.003 130.319 190.218 127.787C190.657 122.637 192.386 107.696 192.545 107.696C192.6 107.696 192.587 114.571 192.515 122.974ZM159.63 121.752C165.878 131.06 169.569 138.032 169.583 140.553C169.597 143.121 168.081 142.128 167.026 138.879C165.449 134.019 161.446 126.374 156.473 118.724C153.98 114.891 152.317 111.987 152.776 112.271C153.237 112.555 156.32 116.821 159.63 121.752ZM285.508 122.581C294.598 127.445 299.534 133.785 299.675 140.776C299.81 147.519 295.462 151.585 288.114 151.585C282.882 151.585 279.943 149.806 277.207 144.981C274.085 139.479 273.975 129.196 276.954 121.371C277.867 118.974 279.091 119.146 285.508 122.581ZM134.489 138.167C136.043 140.197 138.91 142.93 140.859 144.24C143.248 145.845 144.41 147.236 144.422 148.506C144.432 149.542 144.005 150.389 143.473 150.389C141.004 150.389 130.406 136.222 126.373 127.529C123.182 120.652 125.085 121.169 128.517 128.111C130.248 131.612 132.935 136.137 134.489 138.167ZM60.1936 125.535C61.7748 127.114 63.4037 129.906 63.9797 132.023C65.228 136.618 64.5917 145.379 62.6425 150.423C60.233 156.656 59.6789 156.831 55.7755 152.603C47.08 143.183 44.9162 129.903 51.2215 124.652C54.3696 122.03 56.9366 122.283 60.1936 125.535Z"/>
</mask>
<path fill-rule="evenodd" clip-rule="evenodd" d="M152.044 0.565848C136.614 3.81134 124.146 10.684 113.84 21.6243C95.8349 40.7381 90.9749 66.0122 100.486 91.0662C102.791 97.1353 105.001 99.7487 107.315 99.1443C108.592 98.8112 108.81 99.3252 108.81 102.661C108.81 105.835 109.362 107.294 111.744 110.424C115.406 115.234 117.627 116.375 120.753 115.049C122.024 114.511 123.312 114.049 123.616 114.022C123.922 113.996 125.567 116.612 127.272 119.834C131.261 127.374 136.173 134.198 143.148 141.887C148.43 147.71 149.538 150.228 147.165 151.017C146.502 151.238 146.117 150.548 146.117 149.14C146.117 147.728 145.288 146.248 143.852 145.093C137.68 140.134 133.705 135.233 130.163 128.212C126.184 120.327 123.465 117.992 123.5 122.494C123.51 123.794 124.248 126.462 125.14 128.424C127.479 133.57 134.838 144.372 138.787 148.458L142.18 151.968L139.794 152.566C137.383 153.17 133.93 152.573 124.739 149.964C115.395 147.312 107.86 149.14 98.3542 156.366C90.0334 162.69 86.4494 164.038 79.0802 163.612C74.1457 163.327 71.3195 162.626 67.0372 160.625C63.9604 159.187 61.4428 157.738 61.4428 157.405C61.4428 157.072 62.4396 154.321 63.6569 151.291C65.4032 146.951 65.8735 144.367 65.8786 139.088C65.8911 128.055 62.2116 121.927 55.5743 121.927C43.4709 121.927 43.2026 142.263 55.1534 153.828L58.8866 157.44L57.0213 159.467C53.9562 162.796 47.3617 165.442 42.1605 165.43C34.4333 165.414 28.9966 162.302 16.4438 150.711C7.74662 142.682 1.73809 138.311 0.130952 138.846C-0.424043 139.031 0.836852 140.186 2.93359 141.413C5.03033 142.64 10.4696 147.092 15.0211 151.306C28.8381 164.098 35.7387 167.758 44.3713 166.875C49.1214 166.39 52.728 164.8 57.4011 161.133L60.4862 158.713L63.2696 160.424C67.458 163 76.1661 165.46 81.0227 165.439C86.3899 165.416 89.9974 163.799 100.208 156.838C106.124 152.805 109.303 151.192 112.194 150.759C117.085 150.027 124.709 150.777 128.544 152.367C134.641 154.896 146.889 154.054 149.062 150.957C149.748 149.979 150.309 148.905 150.309 148.569C150.309 148.234 147.242 144.456 143.492 140.175C132.21 127.292 123.875 113.179 126.023 110.594C127.563 108.742 127.958 109.04 129.677 113.35C134.649 125.816 148.495 144.772 155.428 148.607C158.769 150.455 159.731 150.634 162.554 149.939C165.012 149.333 166.13 148.475 167.076 146.468C167.768 145.002 168.994 143.624 169.801 143.408C170.67 143.173 171.266 142.212 171.264 141.05C171.251 134.94 149.022 102.138 142.673 98.8597C138.954 96.9394 137.091 97.404 132.877 101.3C130.707 103.307 127.799 105.314 126.416 105.759C124.414 106.405 123.847 107.115 123.637 109.242C123.288 112.773 120.084 115.024 117.246 113.732C114.245 112.367 110.809 107.325 110.301 103.542C110.051 101.683 110.179 100.163 110.586 100.164C110.992 100.165 112.357 101.796 113.618 103.79C117.932 110.607 120.966 111.867 120.966 106.839C120.966 103.819 116.656 98.7032 112.732 97.0658C110.863 96.2864 110.077 95.487 110.386 94.6817C110.642 94.0153 110.124 89.9846 109.235 85.7246C105.713 68.8442 106.239 56.2724 110.977 44.0757C113.87 36.6295 120.177 27.9495 126.239 23.0716C131.858 18.5512 142.913 13.3385 150.113 11.815C156.852 10.3885 169.453 10.2353 175.628 11.5036C182.327 12.8798 192.893 18.3101 198.32 23.1671C207.717 31.575 216.032 46.1726 220.243 61.655C222.673 70.5862 222.94 75.531 221.124 77.9294C219.422 80.1762 219.59 83.3321 221.586 86.6002C224.095 90.7096 225.206 89.2455 224.72 82.469C224.348 77.2714 224.458 76.7231 225.874 76.7231C227.182 76.7231 227.438 77.376 227.438 80.7052C227.438 85.4374 226.208 90.1546 224.729 91.0913C222.525 92.4876 219.988 91.7643 218.175 89.2229C216.52 86.9016 216.037 86.7057 213.164 87.1912C211.04 87.5495 208.589 87.2331 205.793 86.2419C200.77 84.4605 198.148 85.2667 195.657 89.356C192.977 93.7558 188.874 118.923 188.874 130.96C188.874 137.834 189.794 140.344 192.317 140.344C193.256 140.344 194.589 140.908 195.28 141.598C198.582 144.895 203.786 143.636 207.085 138.742C209.585 135.034 211.998 127.145 213.141 118.941C214.127 111.866 214.446 93.1498 213.604 91.7895C213.025 90.8536 214.073 90.7037 216.011 91.4471C219.139 92.645 218.29 110.179 214.432 124.106C212.144 132.363 211.843 136.156 213.354 137.665C214.837 139.146 216.514 138.901 219.848 136.717C228.214 131.237 243.725 122.441 249.263 120.039C255.093 117.51 256.168 117.323 264.913 117.323C270.709 117.323 274.661 117.681 275.239 118.258C275.928 118.946 275.803 120.471 274.764 124.041C272.799 130.791 273.366 141.234 275.948 145.819C278.698 150.706 282.348 152.9 287.726 152.9C296.193 152.9 301.222 148.524 301.192 141.181C301.16 133.258 294.683 125.331 284.132 120.303C277.768 117.27 277.841 117.64 282.182 110.232C285.294 104.922 297.322 92.4424 303.064 88.5649C306.86 86.0025 319.573 79.1223 322.173 78.224C322.865 77.9846 323.187 77.5259 322.889 77.2036C322.09 76.3397 310.603 82.0019 303.565 86.7291C293.29 93.6311 283.099 104.699 278.997 113.413C277.37 116.87 277.234 116.956 274.387 116.312C272.773 115.947 268.057 115.679 263.907 115.715C254.321 115.8 247.795 118.241 232.878 127.325C227.043 130.878 222.103 133.621 221.9 133.419C221.698 133.217 222.121 130.643 222.842 127.699C224.621 120.426 225.465 103.574 224.171 101.161C223.63 100.151 222.634 99.3252 221.96 99.3252C220.974 99.3252 220.731 100.782 220.731 106.705C220.731 116.235 219.455 123.014 216.708 128.078C214.588 131.988 214.559 132.225 215.903 134.566C217.245 136.899 217.235 136.995 215.636 136.995C214.72 136.995 213.783 136.503 213.552 135.902C213.32 135.301 214.31 130.309 215.752 124.81C217.802 116.988 218.473 112.388 218.834 103.68L219.295 92.5479L221.552 93.0426C223.106 93.3833 224.44 93.0284 225.834 91.9025C227.697 90.3973 227.857 89.6816 227.857 82.8675C227.857 75.9178 227.747 75.4515 226.043 75.2096C224.543 74.9961 224.127 74.2 223.64 70.6055C222.724 63.8533 219.261 52.7138 215.752 45.2367C202.741 17.5149 179.57 4.77318 151.85 10.0989C129.415 14.4092 112.958 29.4061 107.492 50.5214C104.821 60.838 105.459 79.0787 108.888 90.4534C109.236 91.6061 109.135 91.9217 108.596 91.3726C107.163 89.9118 104.178 77.1308 103.638 70.1417C101.589 43.6144 118.181 19.1196 143.665 11.0482C166.35 3.86324 186.712 7.88808 201.686 22.5175C212.043 32.6365 218.126 44.0179 222.795 62.0108C224.219 67.5014 225.845 72.1466 226.406 72.3333C229.974 73.5211 229.857 56.2163 226.223 45.3297C222.837 35.1847 218.148 27.9185 209.478 19.3808C200.446 10.4856 195.157 7.1849 183.596 3.22619C176.109 0.662953 173.837 0.265325 165.4 0.0409781C160.097 -0.100494 154.087 0.136409 152.044 0.565848ZM178.424 3.06463C201.59 8.98051 220.981 28.0307 226.134 49.9355C227.452 55.5399 227.934 70.0262 226.802 70.0262C226.452 70.0262 225.471 66.918 224.624 63.12C220.854 46.2379 213.843 32.8952 203.174 22.304C191.758 10.9703 180.742 6.40555 164.811 6.40555C145.54 6.40555 129.851 13.033 117.444 26.4134C102.709 42.3035 98.4724 63.7252 105.505 86.7685C108.847 97.7204 108.839 97.6509 106.874 97.6509C104.68 97.6509 101.534 91.3809 99.1053 82.1643C96.7085 73.0674 96.6774 59.553 99.0341 50.6587C106.675 21.826 132.958 1.58462 162.96 1.42891C169.236 1.39626 173.769 1.87593 178.424 3.06463ZM223.188 82.7922C223.144 86.0201 222.937 86.7425 222.408 85.5128C221.4 83.1689 221.4 78.3973 222.408 78.3973C222.869 78.3973 223.22 80.3746 223.188 82.7922ZM206.794 88.0342C208.786 88.8654 210.98 89.1166 213.184 88.7641C215.415 88.4084 216.54 88.5415 216.54 89.1626C216.54 89.6766 215.731 90.0072 214.742 89.8976C212.98 89.7025 212.941 89.9562 212.749 102.674C212.392 126.357 207.427 142.018 200.275 142.018C197.916 142.018 194.374 139.104 195.17 137.819C196.518 135.641 200.6 104.756 200.59 96.8138C200.587 94.742 200.206 92.4818 199.742 91.7911C199.024 90.7196 198.657 90.8251 197.241 92.5119C196.328 93.5985 195.581 95.2626 195.581 96.2086C195.581 97.1554 195.356 97.7062 195.082 97.4316C194.304 96.6556 195.467 92.4198 197.273 89.4556C199.156 86.3624 201.831 85.964 206.794 88.0342ZM197.28 117.14C196.328 124.607 195.236 131.847 194.854 133.228C194.196 135.606 194.127 135.508 193.536 131.36C192.479 123.942 194.969 100.806 197.479 94.721C198.465 92.3327 198.527 92.4868 198.763 97.8862C198.9 101.008 198.232 109.672 197.28 117.14ZM117.869 102.847C118.731 104 119.307 105.847 119.147 106.949C118.888 108.736 118.519 108.457 115.72 104.359C113.995 101.833 112.583 99.4323 112.583 99.0246C112.583 97.9205 116.071 100.442 117.869 102.847ZM144.683 102.713L148.213 106.101L144.97 103.98C139.269 100.254 139.026 102.756 144.242 111.463C148.755 118.996 156.686 130.806 161.743 137.524C166.614 143.994 167.007 145.258 164.771 147.254C161.29 150.361 157.791 149.381 151.548 143.55C143.429 135.966 130.192 115.156 130.189 109.972C130.188 107.978 127.985 107.234 126.269 108.649C125.092 109.619 124.945 109.608 125.287 108.579C125.506 107.914 126.793 107.073 128.145 106.713C129.498 106.351 132.004 104.541 133.716 102.69C137.795 98.2796 140.068 98.2846 144.683 102.713ZM223.519 109.91C223.272 121.926 220.571 134.484 218.233 134.484C216.34 134.484 216.461 131.881 218.553 127.61C221.099 122.411 222.632 112.111 221.876 105.28C221.436 101.307 221.534 100.749 222.51 101.672C223.341 102.457 223.625 104.77 223.519 109.91ZM193.638 104.505C193.371 105.172 193.172 104.974 193.132 103.999C193.096 103.116 193.294 102.623 193.572 102.9C193.85 103.178 193.88 103.901 193.638 104.505ZM146.872 108.121C153.292 115.075 166.649 137.701 165.192 139.155C164.705 139.641 155.143 126.324 148.916 116.486C140.994 103.972 140.257 100.956 146.872 108.121ZM192.515 122.974C192.388 137.65 191.608 142.292 190.398 135.566C190.084 133.82 190.003 130.319 190.218 127.787C190.657 122.637 192.386 107.696 192.545 107.696C192.6 107.696 192.587 114.571 192.515 122.974ZM159.63 121.752C165.878 131.06 169.569 138.032 169.583 140.553C169.597 143.121 168.081 142.128 167.026 138.879C165.449 134.019 161.446 126.374 156.473 118.724C153.98 114.891 152.317 111.987 152.776 112.271C153.237 112.555 156.32 116.821 159.63 121.752ZM285.508 122.581C294.598 127.445 299.534 133.785 299.675 140.776C299.81 147.519 295.462 151.585 288.114 151.585C282.882 151.585 279.943 149.806 277.207 144.981C274.085 139.479 273.975 129.196 276.954 121.371C277.867 118.974 279.091 119.146 285.508 122.581ZM134.489 138.167C136.043 140.197 138.91 142.93 140.859 144.24C143.248 145.845 144.41 147.236 144.422 148.506C144.432 149.542 144.005 150.389 143.473 150.389C141.004 150.389 130.406 136.222 126.373 127.529C123.182 120.652 125.085 121.169 128.517 128.111C130.248 131.612 132.935 136.137 134.489 138.167ZM60.1936 125.535C61.7748 127.114 63.4037 129.906 63.9797 132.023C65.228 136.618 64.5917 145.379 62.6425 150.423C60.233 156.656 59.6789 156.831 55.7755 152.603C47.08 143.183 44.9162 129.903 51.2215 124.652C54.3696 122.03 56.9366 122.283 60.1936 125.535Z" fill="black" stroke="black" stroke-width="4" mask="url(#path-3-inside-1_0_1)"/>
</svg>
